<svg width="260" height="560" viewBox="0 0 260 560" fill="none" xmlns="http://www.w3.org/2000/svg">
  <g stroke="#791424" stroke-width="2.2" stroke-linecap="round" stroke-linejoin="round">
    <!-- main stem -->
    <path d="M129 26C126 58 131 92 127 128C123 172 109 214 113 260C117 309 136 355 132 404C129 446 124 488 128 534"></path>

    <!-- top rose -->
    <path d="M108 52C108 35 121 24 138 26C153 28 165 40 165 56C165 71 154 82 139 84C122 86 108 75 108 58C108 56 108 54 108 52Z"></path>
    <path d="M118 49C124 39 137 35 147 41C140 44 134 50 131 57C126 55 122 52 118 49Z"></path>
    <path d="M132 37C140 42 145 50 145 60C138 60 131 63 126 68C123 58 125 46 132 37Z"></path>
    <path d="M149 47C152 51 154 56 154 62C150 67 145 71 139 73"></path>
    <path d="M120 65C126 69 133 72 141 72"></path>

    <!-- upper leaves -->
    <path d="M123 102C102 89 79 91 61 110C84 114 105 116 123 108"></path>
    <path d="M130 122C151 109 173 111 193 131C170 135 149 137 130 128"></path>

    <!-- small thorn accents -->
    <path d="M122 150L112 159"></path>
    <path d="M133 182L144 190"></path>
    <path d="M120 228L109 238"></path>
    <path d="M135 281L146 289"></path>
    <path d="M123 344L111 354"></path>

    <!-- middle open rose on side branch -->
    <path d="M131 210C149 211 166 220 177 236"></path>
    <path d="M177 236C189 233 201 238 207 249C211 257 210 267 204 274C197 282 185 285 174 282C164 278 157 269 157 259C157 249 164 240 177 236Z"></path>
    <path d="M170 247C177 241 188 240 196 245C189 248 184 253 181 260C176 258 172 253 170 247Z"></path>
    <path d="M183 243C189 248 192 255 191 263"></path>
    <path d="M167 262C175 266 184 268 193 266"></path>
    <path d="M173 232C169 224 162 217 154 213"></path>

    <!-- middle leaves -->
    <path d="M122 288C98 276 76 279 57 299C80 303 103 306 122 298"></path>
    <path d="M131 320C154 307 176 311 195 331C171 334 149 337 130 328"></path>

    <!-- lower drooping rose -->
    <path d="M128 392C142 396 153 405 159 418C165 431 163 445 153 454C144 462 130 463 118 457C107 451 100 440 101 428C102 414 111 401 128 392Z"></path>
    <path d="M118 406C126 404 134 406 141 412C136 415 132 420 130 426C124 423 120 416 118 406Z"></path>
    <path d="M135 405C142 410 146 418 146 427C139 428 133 431 128 437C125 428 127 415 135 405Z"></path>
    <path d="M113 431C120 437 128 441 137 442"></path>
    <path d="M118 447C126 450 134 451 142 449"></path>

    <!-- lower leaves and curl -->
    <path d="M123 458C101 447 79 450 61 469C84 472 105 474 123 467"></path>
    <path d="M129 534C132 543 139 549 149 550"></path>
  </g>
</svg>